#!OML:ASF X:\für Bonn\!DataBase\2005_08_12_Daniel\c3d\Daniel.ASF
:FULLY-SPECIFIED
:DEGREES
16
root -3.51221 17.0952 -3.14175 316.057 -80.9976 -325.056
lowerback 17.8343 -2.15477 -2.96373
upperback 1.43192 -3.91677 -3.69322
thorax -8.52877 -1.90852 -1.32658
lowerneck 8.87422 7.44916 2.0986
upperneck 4.0839 9.9622 -2.0992
head 0.0275057 4.9637 -1.22724
rclavicle 1.83627e-014 1.15295e-014
rhumerus 54.0093 -4.13925 -103.627
rradius 7.97416
rwrist 71.0756
rhand -18.8642 11.7844
rfingers 7.12502
rthumb 7.43621 -18.065
lclavicle 1.83627e-014 1.15295e-014
lhumerus 59.0842 -5.28177 84.3949
lradius 9.56795
lwrist -56.1199
lhand -14.1353 4.15641
lfingers 7.12502
lthumb 11.9987 33.7925
rfemur 2.54665 8.76141 15.3684
rtibia 30.4396
rfoot -36.1505 -16.8253
rtoes -11.4011
lfemur -7.50283 -14.2941 -21.5506
ltibia 34.8982
lfoot -23.375 3.99164
ltoes -2.71477
17
root -3.50336 17.0748 -3.14772 316.941 -80.9413 -326.14
lowerback 18.1452 -2.21393 -2.92484
upperback 1.58513 -3.99628 -3.64834
thorax -8.53294 -1.94907 -1.27051
lowerneck 9.12719 7.17223 1.82487
upperneck 3.99272 9.56576 -1.92361
head -0.0734406 4.76005 -1.13556
rclavicle 2.17296e-014 7.55382e-015
rhumerus 53.9572 -4.0834 -103.418
rradius 8.15559
rwrist 70.9358
rhand -18.9788 11.8567
rfingers 7.12502
rthumb 7.32561 -17.9965
lclavicle 2.17296e-014 7.55382e-015
lhumerus 59.0772 -5.22262 84.4029
lradius 9.65125
lwrist -56.1925
lhand -14.024 4.15867
lfingers 7.12502
lthumb 12.106 33.7884
rfemur 2.26742 7.34253 15.0502
rtibia 31.0365
rfoot -35.4811 -15.9431
rtoes -11.8119
lfemur -7.7523 -13.6182 -21.3037
ltibia 35.4525
lfoot -23.2664 3.20614
ltoes -2.79578
18
root -3.49201 17.0504 -3.15314 317.719 -80.898 -327.119
lowerback 18.4949 -2.2647 -2.86828
upperback 1.72572 -4.06456 -3.61148
thorax -8.57357 -1.98448 -1.23374
lowerneck 9.33254 6.89682 1.57062
upperneck 3.9955 9.17131 -1.74634
head -0.134414 4.55657 -1.04053
rclavicle -2.3059e-014 -1.19271e-015
rhumerus 53.9138 -4.04629 -103.195
rradius 8.32639
rwrist 70.8426
rhand -19.0726 11.9055
rfingers 7.12502
rthumb 7.2351 -17.9508
lclavicle -2.3059e-014 -1.19271e-015
lhumerus 59.0886 -5.19002 84.4173
lradius 9.67239
lwrist -56.2272
lhand -14.0781 4.18876
lfingers 7.12502
lthumb 12.0538 33.8216
rfemur 1.94135 5.93402 14.7166
rtibia 31.7266
rfoot -34.8535 -15.0024
rtoes -12.1826
lfemur -8.05315 -12.9085 -21.0501
ltibia 36.0826
lfoot -23.1673 2.40318
ltoes -2.88237
19
root -3.47895 17.0223 -3.15643 318.16 -80.8844 -327.753
lowerback 18.8689 -2.29221 -2.80914
upperback 1.85463 -4.10599 -3.59786
thorax -8.64153 -2.00736 -1.22888
lowerneck 9.46375 6.60655 1.39841
upperneck 4.09756 8.76395 -1.60318
head -0.145679 4.34709 -0.962064
rclavicle 1.28962e-014 1.86858e-014
rhumerus 53.8615 -4.02391 -102.996
rradius 8.52031
rwrist 70.7512
rhand -19.1542 11.9417
rfingers 7.12502
rthumb 7.15631 -17.9173
lclavicle 1.28962e-014 1.86858e-014
lhumerus 59.1366 -5.18107 84.4168
lradius 9.65481
lwrist -56.2032
lhand -14.1609 4.16653
lfingers 7.12502
lthumb 11.9739 33.8041
rfemur 1.52757 4.49521 14.3091
rtibia 32.5345
rfoot -34.2581 -13.8897
rtoes -12.4605
lfemur -8.38803 -12.208 -20.836
ltibia 36.7835
lfoot -23.0953 1.63675
ltoes -2.96777
20
root -3.46343 16.9891 -3.15891 318.585 -80.8754 -328.395
lowerback 19.2922 -2.32667 -2.75631
upperback 1.9999 -4.15805 -3.56585
thorax -8.71609 -2.03482 -1.19571
lowerneck 9.50958 6.34812 1.17067
upperneck 4.2359 8.39329 -1.43985
head -0.132672 4.15476 -0.864546
rclavicle -2.25621e-014 -1.55052e-014
rhumerus 53.8755 -3.96244 -102.779
rradius 8.68244
rwrist 70.6267
rhand -19.2103 11.9635
rfingers 7.12502
rthumb 7.10216 -17.8973
lclavicle -2.25621e-014 -1.55052e-014
lhumerus 59.2419 -5.12755 84.428
lradius 9.58629
lwrist -56.1742
lhand -14.3878 4.16706
lfingers 7.12502
lthumb 11.7551 33.8172
rfemur 1.08588 3.10687 13.9117
rtibia 33.4548
rfoot -33.7528 -12.74
rtoes -12.6237
lfemur -8.74907 -11.5411 -20.6265
ltibia 37.5814
lfoot -23.1127 0.881641
ltoes -3.01081
21
root -3.44792 16.9519 -3.16087 318.86 -80.8705 -328.874
lowerback 19.7463 -2.35398 -2.71497
upperback 2.1135 -4.20593 -3.53924
thorax -8.84112 -2.05879 -1.16084
lowerneck 9.51744 6.08913 0.92701
upperneck 4.45085 8.01888 -1.24846
head -0.0898138 3.95912 -0.75249
rclavicle -1.73937e-014 -7.55382e-015
rhumerus 53.8801 -3.88157 -102.58
rradius 8.85544
rwrist 70.5341
rhand -19.2377 11.9339
rfingers 7.12502
rthumb 7.07572 -17.9278
lclavicle -1.73937e-014 -7.55382e-015
lhumerus 59.3454 -5.0765 84.4431
lradius 9.49457
lwrist -56.0783
lhand -14.6062 4.1636
lfingers 7.12502
lthumb 11.5445 33.8257
rfemur 0.574019 1.72972 13.4833
rtibia 34.4913
rfoot -33.2454 -11.5832
rtoes -12.7596
lfemur -9.16503 -10.8781 -20.4318
ltibia 38.4605
lfoot -23.1472 0.11589
ltoes -2.92614
22
root -3.43145 16.9086 -3.16215 319.157 -80.8545 -329.365
lowerback 20.2169 -2.38191 -2.6582
upperback 2.2296 -4.25329 -3.52538
thorax -8.97366 -2.08342 -1.14757
lowerneck 9.47787 5.82982 0.736253
upperneck 4.64379 7.65053 -1.07925
head -0.0417725 3.76803 -0.655067
rclavicle 0 -3.18055e-015
rhumerus 53.9699 -3.8257 -102.389
rradius 8.98888
rwrist 70.4088
rhand -19.1717 11.8673
rfingers 7.12502
rthumb 7.13938 -17.9923
lclavicle 0 -3.18055e-015
lhumerus 59.5122 -5.04635 84.4471
lradius 9.33446
lwrist -56.0405
lhand -14.9242 4.14014
lfingers 7.12502
lthumb 11.2378 33.8191
rfemur 0.0120397 0.395363 13.0546
rtibia 35.6345
rfoot -32.8639 -10.3282
rtoes -12.7218
lfemur -9.64693 -10.2479 -20.2478
ltibia 39.4395
lfoot -23.2469 -0.594053
ltoes -2.92039
23
root -3.41503 16.8606 -3.16301 319.353 -80.8505 -329.777
lowerback 20.7387 -2.40178 -2.62471
upperback 2.34203 -4.29725 -3.50536
thorax -9.13494 -2.10499 -1.1128
lowerneck 9.4249 5.57705 0.562967
upperneck 4.81926 7.29309 -0.909903
head 0.00492764 3.58299 -0.561135
rclavicle 2.85753e-015 2.78299e-014
rhumerus 54.1119 -3.7403 -102.211
rradius 9.06019
rwrist 70.2574
rhand -19.1846 11.7962
rfingers 7.12502
rthumb 7.12692 -18.0638
lclavicle 2.85753e-015 2.78299e-014
lhumerus 59.7109 -5.01475 84.4593
lradius 9.15683
lwrist -55.9726
lhand -15.2594 4.12842
lfingers 7.12502
lthumb 10.9145 33.8247
rfemur -0.579928 -0.930538 12.611
rtibia 36.8863
rfoot -32.495 -9.0862
rtoes -12.8244
lfemur -10.1536 -9.62086 -20.0675
ltibia 40.5147
lfoot -23.3837 -1.34284
ltoes -2.82957
24
root -3.39821 16.8075 -3.16209 319.59 -80.8508 -330.222
lowerback 21.263 -2.42734 -2.55933
upperback 2.46512 -4.34122 -3.48748
thorax -9.2871 -2.12816 -1.09798
lowerneck 9.35511 5.3311 0.346789
upperneck 4.90733 6.94264 -0.710926
head 0.0259446 3.40193 -0.453385
rclavicle 7.62836e-015 -1.59028e-015
rhumerus 54.3533 -3.6569 -102.029
rradius 9.09867
rwrist 70.1015
rhand -19.1167 11.7698
rfingers 7.12502
rthumb 7.19254 -18.088
lclavicle 7.62836e-015 -1.59028e-015
lhumerus 59.9823 -4.98169 84.4704
lradius 8.9576
lwrist -55.8454
lhand -15.5252 4.0681
lfingers 7.12502
lthumb 10.6582 33.7778
rfemur -1.23602 -2.26831 12.156
rtibia 38.2511
rfoot -32.1602 -7.82566
rtoes -12.8551
lfemur -10.724 -9.02969 -19.8935
ltibia 41.6981
lfoot -23.5708 -2.01935
ltoes -2.75353
25
root -3.38153 16.746 -3.16113 319.665 -80.8412 -330.502
lowerback 21.7987 -2.44654 -2.52709
upperback 2.58109 -4.38577 -3.47548
thorax -9.45021 -2.15035 -1.06965
lowerneck 9.35412 5.09925 0.147258
upperneck 4.88262 6.61396 -0.52819
head 0.00346334 3.23336 -0.358444
rclavicle 2.44257e-014 2.14687e-014
rhumerus 54.6301 -3.55427 -101.861
rradius 9.07296
rwrist 69.9212
rhand -19.1005 11.7235
rfingers 7.12502
rthumb 7.20811 -18.1338
lclavicle 2.44257e-014 2.14687e-014
lhumerus 60.2478 -4.94442 84.4794
lradius 8.7782
lwrist -55.8674
lhand -15.7826 4.04741
lfingers 7.12502
lthumb 10.4098 33.7697
rfemur -1.93972 -3.54863 11.6804
rtibia 39.7256
rfoot -31.8926 -6.54386
rtoes -12.8315
lfemur -11.3531 -8.46143 -19.7443
ltibia 42.9882
lfoot -23.8271 -2.70926
ltoes -2.62493
26
root -3.36417 16.677 -3.15903 319.675 -80.8164 -330.717
lowerback 22.3617 -2.47275 -2.49347
upperback 2.68984 -4.44092 -3.4666
thorax -9.63536 -2.17721 -1.04063
lowerneck 9.31989 4.8796 -0.115678
upperneck 4.8505 6.29613 -0.297477
head -0.0181773 3.06922 -0.238402
rclavicle 1.21756e-014 -3.61788e-014
rhumerus 54.9651 -3.44545 -101.684
rradius 8.97063
rwrist 69.6815
rhand -19.163 11.6767
rfingers 7.12502
rthumb 7.14782 -18.1826
lclavicle 1.21756e-014 -3.61788e-014
lhumerus 60.5485 -4.89425 84.4942
lradius 8.58292
lwrist -55.9185
lhand -15.9956 3.996
lfingers 7.12502
lthumb 10.2044 33.7285
rfemur -2.69791 -4.8542 11.1565
rtibia 41.3142
rfoot -31.6732 -5.17257
rtoes -12.7875
lfemur -12.044 -7.89627 -19.6146
ltibia 44.3854
lfoot -24.0999 -3.40553
ltoes -2.45948
27
root -3.34788 16.6011 -3.15573 319.67 -80.801 -330.931
lowerback 22.9351 -2.49068 -2.42892
upperback 2.80155 -4.47919 -3.46848
thorax -9.8245 -2.19764 -1.04522
lowerneck 9.32311 4.66628 -0.347411
upperneck 4.75158 5.99088 -0.0708016
head -0.0643004 2.91267 -0.126992
rclavicle 1.70458e-014 -1.82882e-014
rhumerus 55.3256 -3.36135 -101.514
rradius 8.82836
rwrist 69.4165
rhand -19.2976 11.6761
rfingers 7.12502
rthumb 7.01787 -18.1876
lclavicle 1.70458e-014 -1.82882e-014
lhumerus 60.8226 -4.88469 84.5128
lradius 8.46983
lwrist -55.9696
lhand -16.1278 3.91186
lfingers 7.12502
lthumb 10.0768 33.6506
rfemur -3.48609 -6.14014 10.6267
rtibia 43.0084
rfoot -31.469 -3.77531
rtoes -12.7072
lfemur -12.7587 -7.39111 -19.4945
ltibia 45.8748
lfoot -24.441 -4.05226
ltoes -2.45435
